<?xml version="1.0" encoding="UTF-8" standalone="no"?>
<!-- Created with Inkscape (http://www.inkscape.org/) -->

<svg
   width="128mm"
   height="128mm"
   viewBox="0 0 128 128"
   version="1.1"
   id="svg1"
   xml:space="preserve"
   inkscape:export-filename="fbx.svg"
   inkscape:export-xdpi="96"
   inkscape:export-ydpi="96"
   inkscape:version="1.3.2 (091e20e, 2023-11-25, custom)"
   sodipodi:docname="fbx.svg"
   xmlns:inkscape="http://www.inkscape.org/namespaces/inkscape"
   xmlns:sodipodi="http://sodipodi.sourceforge.net/DTD/sodipodi-0.dtd"
   xmlns="http://www.w3.org/2000/svg"
   xmlns:svg="http://www.w3.org/2000/svg"><sodipodi:namedview
     id="namedview1"
     pagecolor="#ffffff"
     bordercolor="#000000"
     borderopacity="0.25"
     inkscape:showpageshadow="2"
     inkscape:pageopacity="0.0"
     inkscape:pagecheckerboard="0"
     inkscape:deskcolor="#d1d1d1"
     inkscape:document-units="mm"
     inkscape:zoom="0.73139029"
     inkscape:cx="91.606357"
     inkscape:cy="316.52047"
     inkscape:window-width="1397"
     inkscape:window-height="969"
     inkscape:window-x="492"
     inkscape:window-y="32"
     inkscape:window-maximized="0"
     inkscape:current-layer="layer1" /><defs
     id="defs1" /><g
     inkscape:label="Layer 1"
     inkscape:groupmode="layer"
     id="layer1"><path
       id="Selection"
       fill="none"
       stroke="#000000"
       stroke-width="0.373575"
       d="m 44.888563,18.236657 c 0,0 -2.013751,-4.878357 -2.013751,-4.878357 -0.199004,-0.464105 -0.988406,-2.266468 -1.029293,-2.636954 -0.04349,-0.377089 0.315041,-1.791808 0.424303,-2.2414127 0,0 1.085981,-4.4828188 1.085981,-4.4828188 0.129158,-0.5168391 0.3242,-1.8221351 0.677347,-2.1464744 0.230604,-0.2109574 0.807849,-0.3454407 1.118904,-0.4350988 0,0 2.372231,-0.66582824 2.372231,-0.66582824 0.535026,-0.13316849 2.340592,-0.68692974 2.767588,-0.53398882 0.504758,0.18063073 1.617062,1.48592656 2.01375,1.93552416 0,0 1.539303,1.5821729 1.539303,1.5821729 0,0 1.064866,1.1866264 1.064866,1.1866264 1.072832,1.1220282 1.594665,1.1879481 1.802885,2.7687985 0,0 0.658891,5.0102138 0.658891,5.0102138 0.05272,0.403449 0.117293,1.645455 0.379561,1.897286 0.261012,0.250509 0.657699,0.130524 0.975253,0.08571 0,0 1.186083,0 1.186083,0 0,0 1.054386,-0.131848 1.054386,-0.131848 0,0 3.558337,-0.13712 3.558337,-0.13712 0,0 1.581481,0.119978 1.581481,0.119978 0,0 3.031186,0.155584 3.031186,0.155584 0,0 1.186081,0.119978 1.186081,0.119978 0,0 0.75514,-5.6694448 0.75514,-5.6694448 0.07774,-0.5471661 0.222776,-2.1056077 0.43227,-2.505106 0.206971,-0.3955399 0.938349,-1.064012 1.279677,-1.4503195 0,0 2.133673,-2.2414129 2.133673,-2.2414129 0,0 1.198029,-1.3184728 1.198029,-1.3184728 0.371595,-0.3757674 1.225644,-1.34880645 1.713274,-1.44241607 0.279458,-0.0527358 0.890954,0.13316849 1.18608,0.20699865 0,0 2.240439,0.53926243 2.240439,0.53926243 0.6484,0.19249269 2.530373,0.57485549 2.842718,1.12069949 0.170067,0.2953416 0.44275,1.6665573 0.537678,2.0805546 0,0 0.951491,3.9554326 0.951491,3.9554326 0.173922,0.6935181 0.598354,2.1069213 0.499442,2.7688003 -0.07774,0.515523 -0.677348,1.807628 -0.904097,2.373252 0,0 -2.08228,5.010211 -2.08228,5.010211 0,0 5.798763,2.828132 5.798763,2.828132 0,0 5.27161,3.500554 5.27161,3.500554 0.386197,-0.855692 2.681932,-3.698329 3.398864,-4.614665 0.412482,-0.526072 1.075359,-1.536027 1.610477,-1.8551 0.31371,-0.185904 1.315246,-0.457508 1.711966,-0.573534 0,0 3.16295,-0.944027 3.16295,-0.944027 0,0 2.63581,-0.791086 2.63581,-0.791086 0.34,-0.09889 0.84609,-0.288745 1.18608,-0.160858 0.4151,0.158222 1.95446,1.797083 2.37223,2.215045 0.44409,0.444323 2.01244,1.869596 2.13764,2.373252 0.0762,0.309841 -0.1063,0.751535 -0.19767,1.054781 0,0 -0.69846,2.373259 -0.69846,2.373259 0,0 -1.01617,3.428039 -1.01617,3.428039 -0.11865,0.410045 -0.40329,1.496465 -0.61148,1.807629 -0.28862,0.432462 -1.63289,1.365941 -2.11788,1.73643 0,0 -4.34906,3.443866 -4.34906,3.443866 0.61812,0.573534 1.59993,2.137242 2.10864,2.900637 1.74886,2.62509 1.61706,2.553891 2.93366,5.273912 0,0 1.28364,2.636955 1.28364,2.636955 0,0 5.13982,-2.089789 5.13982,-2.089789 0.63264,-0.270287 2.00586,-0.936122 2.63581,-0.925575 0,0 2.10865,0.454878 2.10865,0.454878 0,0 4.21728,0.995449 4.21728,0.995449 0.48361,0.117347 1.98081,0.403456 2.27734,0.715933 0.21217,0.22282 0.34799,0.806908 0.43486,1.11279 0,0 0.63124,2.241411 0.63124,2.241411 0.16213,0.648693 0.83289,2.630363 0.51925,3.152477 -0.13454,0.225462 -0.85135,0.830639 -1.09513,1.067963 0,0 -3.03119,2.899331 -3.03119,2.899331 -0.46782,0.466741 -1.8253,1.811589 -2.37222,2.03573 0,0 -2.37222,0.373123 -2.37222,0.373123 0,0 -5.66698,0.755487 -5.66698,0.755487 0,0 0.39535,7.119771 0.39535,7.119771 0,0 -0.25039,3.955434 -0.25039,3.955434 -0.0161,0.271603 -0.088,1.212987 0,1.39362 0.23461,0.399496 1.52218,0.431148 1.96367,0.489152 0,0 5.79878,0.791095 5.79878,0.791095 0.66292,0.193813 1.45232,1.176071 1.97685,1.665232 0,0 2.6358,2.494559 2.6358,2.494559 0.49682,0.449596 1.57225,1.359348 1.94521,1.868272 0.34402,0.508936 0.15279,0.899206 0,1.450331 0,0 -0.8039,3.164338 -0.8039,3.164338 -0.11199,0.359942 -0.46117,1.695556 -0.63264,1.907842 -0.21882,0.271597 -0.83289,0.365209 -1.16762,0.448282 0,0 -2.63581,0.627589 -2.63581,0.627589 0,0 -3.03118,0.725162 -3.03118,0.725162 -0.56413,0.141073 -1.41541,0.402137 -1.97684,0.362576 -0.5826,-0.03948 -1.76995,-0.609125 -2.37223,-0.854369 0,0 -5.27161,-2.162308 -5.27161,-2.162308 0,0 -1.54853,3.296191 -1.54853,3.296191 0,0 -1.33371,2.636959 -1.33371,2.636959 0,0 -3.44368,5.142058 -3.44368,5.142058 0,0 4.34907,3.213126 4.34907,3.213126 0,0 2.11787,1.802347 2.11787,1.802347 0,0 0.61149,1.840585 0.61149,1.840585 0,0 0.9423,3.16433 0.9423,3.16433 0,0 0.73271,2.50512 0.73271,2.50512 0,0 0.18189,1.18663 0.18189,1.18663 0,0 -0.84084,1.05478 -0.84084,1.05478 0,0 -2.55936,2.56049 -2.55936,2.56049 0,0 -1.18608,0.87809 -1.18608,0.87809 0,0 -2.24043,-0.55639 -2.24043,-0.55639 0,0 -4.34908,-1.29737 -4.34908,-1.29737 0,0 -2.096774,-0.72914 -2.096774,-0.72914 0,0 -1.780491,-2.17416 -1.780491,-2.17416 0,0 -3.107614,-4.21913 -3.107614,-4.21913 0,0 -5.139819,3.44519 -5.139819,3.44519 0,0 -2.899381,1.46614 -2.899381,1.46614 0,0 -3.031185,1.41737 -3.031185,1.41737 0,0 2.088878,5.14205 2.088878,5.14205 0.275474,0.64605 0.923875,1.98957 0.931713,2.63696 0.0063,0.52344 -0.326852,1.67973 -0.467843,2.2414 0,0 -0.943664,3.95542 -0.943664,3.95542 -0.09492,0.43775 -0.440237,2.14649 -0.673493,2.41019 -0.200335,0.22546 -0.773597,0.35072 -1.067528,0.43509 0,0 -2.372228,0.66584 -2.372228,0.66584 -0.661542,0.16481 -2.477654,0.79505 -3.031171,0.48519 -0.47581,-0.26501 -1.729086,-1.6771 -2.145542,-2.15044 0,0 -2.37223,-2.50511 -2.37223,-2.50511 -0.429607,-0.48652 -1.386429,-1.32242 -1.602563,-1.84585 0,0 -0.372926,-2.37325 -0.372926,-2.37325 0,0 -0.755139,-5.66945 -0.755139,-5.66945 0,0 -1.976843,0.14372 -1.976843,0.14372 0,0 -5.008027,0.25181 -5.008027,0.25181 0,0 -3.558324,-0.25181 -3.558324,-0.25181 0,0 -2.108646,-0.14372 -2.108646,-0.14372 0,0 -0.755139,5.66945 -0.755139,5.66945 0,0 -0.372926,2.37325 -0.372926,2.37325 -0.224097,0.54716 -1.568298,1.90519 -2.034832,2.37325 0,0 -2.898067,3.0325 -2.898067,3.0325 -0.237239,0.24391 -0.8421,0.96117 -1.067528,1.09565 -0.494267,0.29666 -2.519831,-0.34147 -3.151109,-0.49837 0,0 -2.372228,-0.68428 -2.372228,-0.68428 -0.288617,-0.091 -0.768282,-0.20438 -0.987074,-0.40347 -0.386197,-0.35336 -0.581228,-1.7338 -0.710397,-2.27834 0,0 -0.987075,-4.08727 -0.987075,-4.08727 -0.146305,-0.58144 -0.487631,-1.8208 -0.460015,-2.37327 0.02899,-0.58275 0.738013,-2.16228 0.999025,-2.76878 0,0 2.013749,-4.87836 2.013749,-4.87836 0,0 -5.798761,-2.82812 -5.798761,-2.82812 0,0 -2.108647,-1.39099 -2.108647,-1.39099 0,0 -2.108647,-1.40684 -2.108647,-1.40684 -0.247729,-0.16085 -0.604861,-0.43905 -0.917239,-0.36918 -0.398019,0.0883 -1.017471,1.03766 -1.274367,1.38047 0,0 -3.033813,3.95542 -3.033813,3.95542 -0.906749,1.16816 -1.320569,1.02841 -2.681934,1.44769 0,0 -4.349071,1.28418 -4.349071,1.28418 -0.457363,0.13712 -1.995309,0.68694 -2.372228,0.59333 -0.423112,-0.10416 -1.930722,-1.65996 -2.34982,-2.06209 -0.35712,-0.34415 -2.117875,-2.14647 -2.237797,-2.44974 -0.142322,-0.36258 0.0422,-0.82933 0.144974,-1.18663 0,0 0.789392,-2.63695 0.789392,-2.63695 0,0 0.972601,-3.29619 0.972601,-3.29619 0.13967,-0.44696 0.312389,-1.209036 0.55082,-1.576895 0.351945,-0.5432 1.690878,-1.470097 2.261521,-1.899914 1.008184,-0.760764 3.26576,-2.625092 4.217292,-3.115559 0,0 -3.499033,-5.273905 -3.499033,-5.273905 0,0 -1.410155,-2.768806 -1.410155,-2.768806 0,0 -1.416738,-3.032497 -1.416738,-3.032497 0,0 -5.139819,2.135934 -5.139819,2.135934 -0.556136,0.222829 -1.867474,0.820096 -2.37222,0.870196 -0.610193,0.06059 -1.8569248,-0.326974 -2.5040149,-0.483875 0,0 -4.7444474,-1.12071 -4.7444474,-1.12071 C 3.0961712,84.404376 2.1631011,84.236924 1.8850239,83.95478 1.6043149,83.669989 1.4184897,82.845937 1.3038246,82.446436 c 0,0 -0.91331175,-3.428039 -0.91331175,-3.428039 -0.14233239,-0.576175 -0.37560577,-1.050825 0,-1.582172 0.38877552,-0.553756 1.76730505,-1.758838 2.32477795,-2.263819 0,0 2.372221,-2.255913 2.372221,-2.255913 0.5047554,-0.445642 1.2309278,-1.336938 1.8450627,-1.505697 0,0 5.7987705,-0.793729 5.7987705,-0.793729 0.429618,-0.05669 1.736999,-0.08174 1.95576,-0.473329 0.07248,-0.181948 0.02502,-1.147066 0,-1.409443 0,0 -0.242554,-3.955434 -0.242554,-3.955434 0,0 0.395356,-7.119771 0.395356,-7.119771 0,0 -5.666973,-0.773943 -5.666973,-0.773943 C 8.6668515,56.815277 7.0208018,56.650457 6.668919,56.469828 6.2775016,56.269417 5.6936739,55.618094 5.3510199,55.29111 c 0,0 -2.3722251,-2.245364 -2.3722251,-2.245364 0,0 -1.9768528,-1.847188 -1.9768528,-1.847188 -0.4625902,-0.46674 -0.8645489,-0.743617 -0.78283487,-1.450318 0,0 1.04641747,-4.087281 1.04641747,-4.087281 0.1199285,-0.41664 0.3334278,-1.350111 0.6194206,-1.640181 0.3189303,-0.324346 1.9043682,-0.623639 2.4117599,-0.733077 0,0 4.0854965,-0.97171 4.0854965,-0.97171 0.5429768,-0.135805 1.7409504,-0.485205 2.2404294,-0.460152 0.561429,0.0277 1.787076,0.614409 2.372225,0.851741 0,0 5.271611,2.162302 5.271611,2.162302 0,0 1.416738,-3.0325 1.416738,-3.0325 0,0 1.410156,-2.7688 1.410156,-2.7688 0,0 3.499033,-5.273905 3.499033,-5.273905 0,0 -4.217294,-3.108966 -4.217294,-3.108966 0,0 -2.17322,-1.78126 -2.17322,-1.78126 0,0 -0.763107,-2.097699 -0.763107,-2.097699 0,0 -1.28366,-4.350964 -1.28366,-4.350964 0,0 -0.553484,-2.241414 -0.553484,-2.241414 0,0 1.081998,-1.318474 1.081998,-1.318474 0,0 1.067528,-1.174762 1.067528,-1.174762 0,0 1.174265,-1.067966 1.174265,-1.067966 0,0 1.186081,-1.027095 1.186081,-1.027095 0,0 1.186081,0.160858 1.186081,0.160858 0,0 2.76759,0.822728 2.76759,0.822728 0,0 3.031185,0.912385 3.031185,0.912385 0,0 1.70799,0.562987 1.70799,0.562987 0,0 1.690875,1.997493 1.690875,1.997493 0,0 3.322422,4.482819 3.322422,4.482819 0,0 5.271611,-3.500554 5.271611,-3.500554 z m 18.450618,6.892995 c 0,0 -3.82192,0.249186 -3.82192,0.249186 0,0 -5.66697,1.089065 -5.66697,1.089065 -8.215798,2.319203 -15.373322,7.019566 -20.623845,13.787303 0,0 -1.516908,2.241403 -1.516908,2.241403 0,0 -1.466829,2.241414 -1.466829,2.241414 -1.437834,2.516968 -3.036442,6.42098 -3.785011,9.229337 0,0 -0.573261,2.768794 -0.573261,2.768794 0,0 -0.487632,2.505106 -0.487632,2.505106 0,0 0,1.450325 0,1.450325 0,0 -0.275475,3.559886 -0.275475,3.559886 0,0 0.125197,1.318472 0.125197,1.318472 0,0 0.159448,3.164348 0.159448,3.164348 0,0 1.051723,5.405743 1.051723,5.405743 0,0 1.676378,4.878359 1.676378,4.878359 0,0 1.170283,2.373251 1.170283,2.373251 0,0 0.86454,1.84588 0.86454,1.84588 0,0 3.078607,4.614666 3.078607,4.614666 2.928377,3.722054 6.776649,7.140861 10.85028,9.565534 0,0 2.767591,1.410771 2.767591,1.410771 0,0 2.108647,1.038958 2.108647,1.038958 0,0 4.876236,1.677097 4.876236,1.677097 0,0 5.403388,1.05216 5.403388,1.05216 0,0 3.162962,0.16613 3.162962,0.16613 0,0 1.317914,0.11997 1.317914,0.11997 0,0 0.527187,0 0.527187,0 0,0 1.449691,-0.12656 1.449691,-0.12656 0,0 1.976853,-0.14634 1.976853,-0.14634 0,0 1.186083,0 1.186083,0 0,0 2.372216,-0.46545 2.372216,-0.46545 0,0 2.767588,-0.56563 2.767588,-0.56563 2.175864,-0.54715 4.847242,-1.61512 6.853093,-2.618482 0,0 2.504005,-1.202455 2.504005,-1.202455 0,0 2.240439,-1.504382 2.240439,-1.504382 0,0 1.976855,-1.344843 1.976855,-1.344843 0,0 3.785012,-3.288286 3.785012,-3.288286 0,0 1.493183,-1.658635 1.493183,-1.658635 0,0 1.938633,-2.241404 1.938633,-2.241404 1.700091,-2.222964 4.06045,-6.237714 5.112138,-8.833791 1.17692,-2.907242 2.28393,-7.165922 2.68721,-10.284108 0,0 0,-1.450328 0,-1.450328 0,0 0.15162,-1.977712 0.15162,-1.977712 0,0 0.11597,-1.186633 0.11597,-1.186633 0,0 -0.25968,-3.032493 -0.25968,-3.032493 0,0 0,-1.45032 0,-1.45032 0,0 -1.03977,-5.405758 -1.03977,-5.405758 0,0 -0.76178,-2.373253 -0.76178,-2.373253 0,0 -0.893486,-2.636954 -0.893486,-2.636954 0,0 -1.093814,-2.241404 -1.093814,-2.241404 0,0 -1.20188,-2.373258 -1.20188,-2.373258 -1.440463,-2.520928 -4.073633,-5.960835 -6.116376,-8.00579 -2.04406,-2.043641 -5.482473,-4.677949 -8.002293,-6.119044 0,0 -2.372229,-1.202452 -2.372229,-1.202452 0,0 -2.240437,-1.094332 -2.240437,-1.094332 0,0 -2.372216,-0.809544 -2.372216,-0.809544 -2.813729,-1.002044 -2.652942,-0.899202 -5.535197,-1.43978 0,0 -2.240439,-0.439049 -2.240439,-0.439049 0,0 -1.449689,0 -1.449689,0 -1.030619,-0.127895 -2.986365,-0.324347 -3.953698,-0.234688 z"
       style="fill:#0edff2;fill-opacity:1"
       inkscape:label="Selection" /></g></svg>
